<?xml version="1.0" standalone="no"?>
<!DOCTYPE svg PUBLIC "-//W3C//DTD SVG 20010904//EN"
 "http://www.w3.org/TR/2001/REC-SVG-20010904/DTD/svg10.dtd">
<svg version="1.0" xmlns="http://www.w3.org/2000/svg"
 width="500.000000pt" height="500.000000pt" viewBox="0 0 500.000000 500.000000"
 preserveAspectRatio="xMidYMid meet">

<g transform="translate(0.000000,500.000000) scale(0.100000,-0.100000)"
fill="#000000" stroke="none">
<path d="M2072 4579 c-129 -19 -276 -95 -341 -178 -37 -46 -83 -145 -100 -213
-19 -80 -25 -219 -12 -308 7 -45 30 -130 50 -189 52 -144 65 -228 66 -411 l0
-155 -43 -110 c-69 -175 -67 -233 11 -302 69 -61 264 -139 430 -174 152 -32
375 -32 474 -1 115 36 122 46 134 182 21 232 42 279 291 630 336 474 358 515
358 679 0 180 -69 295 -199 331 -48 13 -186 13 -235 -1 -37 -10 -39 -10 -69
26 -43 53 -82 66 -194 66 -130 0 -179 11 -303 69 -91 42 -203 74 -245 69 -5
-1 -38 -6 -73 -10z m273 -72 c49 -21 96 -43 103 -51 12 -12 9 -16 -22 -31 -75
-36 -163 -159 -202 -283 -21 -64 -30 -242 -15 -270 6 -12 15 -22 19 -22 4 0 7
48 8 108 2 232 85 396 232 453 45 18 78 23 162 23 97 1 109 -1 165 -29 36 -18
69 -43 82 -63 47 -71 53 -209 14 -312 -10 -26 -51 -95 -91 -153 -41 -59 -71
-110 -67 -113 10 -11 64 34 101 85 20 27 51 79 68 117 30 63 33 80 38 191 5
111 7 124 29 147 30 31 112 51 174 42 57 -9 118 -52 151 -108 29 -51 56 -153
56 -219 0 -54 -31 -162 -68 -234 -32 -63 -184 -307 -225 -360 -102 -132 -180
-226 -203 -244 -45 -35 -94 -23 -94 24 0 11 39 80 86 154 47 73 83 136 79 139
-10 10 -41 -29 -95 -118 -63 -104 -76 -119 -116 -136 -41 -17 -97 -2 -136 36
-36 36 -37 83 -3 165 29 70 29 71 11 56 -8 -7 -24 -40 -35 -73 -37 -111 -65
-123 -201 -92 -96 22 -110 40 -111 153 -1 116 -17 164 -18 56 -2 -152 -26
-182 -138 -173 -72 6 -93 29 -94 102 -1 28 -5 65 -8 81 -6 25 -9 18 -15 -40
-8 -83 -22 -114 -59 -135 -27 -14 -29 -14 -48 9 -15 18 -19 39 -19 98 0 72
-22 203 -41 246 -8 18 -9 16 -4 -11 10 -67 18 -280 11 -315 -4 -21 -13 -37
-20 -37 -15 0 -27 43 -46 163 -6 38 -29 126 -51 195 -70 220 -64 394 21 569
47 96 103 150 200 196 94 45 153 57 255 53 76 -2 104 -9 180 -39z m-55 -1182
c129 -25 253 -69 375 -133 143 -74 150 -85 108 -178 -36 -80 -49 -136 -59
-256 -4 -49 -8 -88 -9 -88 -1 0 -36 15 -76 34 -274 127 -643 175 -918 120 -28
-6 -31 -4 -31 20 0 15 19 82 41 149 31 91 43 144 46 207 9 148 18 152 263 146
104 -3 210 -11 260 -21z m-60 -540 c169 -25 409 -110 448 -158 20 -24 8 -34
-66 -57 -146 -46 -305 -35 -525 36 -126 41 -174 63 -200 92 -26 28 -19 73 13
89 34 17 212 16 330 -2z"/>
<path d="M2084 4401 c-72 -44 -138 -187 -119 -258 7 -26 8 -24 21 27 30 112
85 193 156 229 l43 21 -35 0 c-19 0 -49 -9 -66 -19z"/>
<path d="M3130 4155 c26 -77 25 -121 -5 -212 -29 -86 -28 -112 2 -61 62 105
61 265 -1 317 -13 11 -12 3 4 -44z"/>
<path d="M2760 1800 l0 -350 39 0 38 0 5 114 c4 93 9 121 26 148 36 58 104 76
142 38 18 -18 20 -33 20 -160 l0 -140 46 0 46 0 -4 160 -3 160 -31 31 c-55 55
-152 49 -214 -13 l-30 -30 0 196 0 196 -40 0 -40 0 0 -350z"/>
<path d="M3838 2134 c-47 -25 -62 -67 -66 -191 l-4 -113 -29 0 c-27 0 -29 -3
-29 -40 0 -38 2 -40 30 -40 l30 0 0 -150 0 -150 40 0 40 0 0 150 0 150 60 0
60 0 0 40 0 40 -60 0 -60 0 0 89 c0 135 19 168 93 163 21 -2 30 4 39 24 10 21
9 27 -3 35 -22 14 -111 10 -141 -7z"/>
<path d="M1267 2095 c-89 -34 -171 -117 -203 -207 -9 -24 -15 -75 -15 -117 0
-62 4 -84 30 -136 59 -120 169 -189 302 -189 67 0 86 5 143 33 121 59 186 165
186 304 0 58 -5 83 -29 132 -31 66 -94 131 -163 166 -55 29 -193 36 -251 14z
m220 -88 c120 -62 171 -223 110 -343 -30 -60 -58 -86 -117 -113 -117 -53 -258
-4 -317 112 -68 134 -4 302 134 353 47 18 147 13 190 -9z"/>
<path d="M2329 2096 c-117 -42 -186 -126 -210 -259 -29 -157 44 -298 188 -364
75 -34 183 -36 266 -4 31 12 57 27 57 32 0 11 -29 69 -34 69 -2 0 -23 -9 -47
-20 -102 -46 -242 -11 -302 76 -41 59 -55 152 -34 224 44 149 200 220 336 153
l43 -21 14 34 c8 18 14 38 14 43 0 5 -25 19 -55 30 -65 24 -179 28 -236 7z"/>
<path d="M3342 1814 c-85 -42 -124 -130 -102 -226 30 -124 170 -181 297 -121
l33 15 -17 29 c-12 20 -23 27 -33 23 -42 -17 -84 -25 -109 -19 -28 6 -71 39
-71 54 0 5 62 30 138 56 75 26 141 51 145 55 4 4 -5 31 -20 60 -51 97 -155
127 -261 74z m171 -75 c9 -12 17 -25 17 -29 0 -8 -187 -80 -208 -80 -28 0 6
100 42 123 47 31 117 24 149 -14z"/>
<path d="M3520 1060 c-16 -31 -6 -37 57 -36 52 1 58 3 61 24 4 25 -25 43 -37
23 -6 -9 -15 -9 -35 -1 -35 13 -33 13 -46 -10z"/>
<path d="M1068 984 c-5 -4 -8 -76 -8 -161 l0 -153 51 0 c50 0 87 12 101 34 4
6 8 63 8 127 0 104 -2 118 -20 134 -21 19 -119 33 -132 19z m90 -156 c-2 -70
-7 -103 -15 -106 -10 -3 -13 22 -13 102 0 89 3 106 15 106 13 0 15 -16 13
-102z"/>
<path d="M1291 971 c-26 -26 -34 -72 -30 -177 4 -76 7 -88 28 -105 36 -29 94
-25 120 7 18 23 21 41 21 136 0 102 -1 110 -25 133 -30 31 -86 34 -114 6z m69
-141 c0 -91 -3 -110 -15 -110 -12 0 -15 18 -15 103 0 57 3 107 7 110 18 19 23
-2 23 -103z"/>
<path d="M1557 984 c-4 -4 -7 -76 -7 -161 l0 -153 25 0 c24 0 25 2 26 73 l1
72 13 -45 c7 -25 16 -57 19 -72 4 -16 13 -28 21 -28 15 0 20 13 31 75 12 74
23 73 24 -2 l0 -73 30 0 30 0 0 161 0 160 -37 -3 -37 -3 -17 -75 c-17 -80 -20
-79 -41 15 -12 56 -15 60 -43 63 -17 2 -34 0 -38 -4z"/>
<path d="M1835 965 c-24 -23 -25 -29 -25 -160 l0 -135 25 0 c24 0 25 3 25 55
0 48 2 55 20 55 18 0 20 -7 20 -55 l0 -55 35 0 35 0 0 135 c0 131 -1 137 -25
160 -15 16 -36 25 -55 25 -19 0 -40 -9 -55 -25z m63 -78 c3 -42 1 -47 -17 -47
-17 0 -21 6 -21 34 0 78 33 89 38 13z"/>
<path d="M2010 830 l0 -160 30 0 c29 0 29 1 32 63 4 74 22 83 26 12 4 -59 15
-75 53 -75 24 0 29 4 29 24 0 14 -4 28 -10 31 -5 3 -10 21 -10 39 0 17 -5 37
-11 43 -8 8 -7 17 5 34 33 47 13 121 -37 139 -16 5 -47 10 -68 10 l-39 0 0
-160z m90 60 c0 -29 -4 -40 -15 -40 -11 0 -15 11 -15 40 0 29 4 40 15 40 11 0
15 -11 15 -40z"/>
<path d="M2312 967 c-20 -22 -22 -33 -22 -160 l0 -137 25 0 c24 0 25 3 25 55
0 48 2 55 20 55 18 0 20 -7 20 -56 l0 -55 33 3 32 3 0 138 c0 134 -1 139 -24
158 -32 26 -82 25 -109 -4z m66 -80 c3 -42 1 -47 -17 -47 -18 0 -21 6 -21 43
0 24 3 47 7 51 16 15 28 -3 31 -47z"/>
<path d="M2511 971 c-26 -26 -34 -72 -30 -177 4 -76 7 -88 28 -105 36 -29 94
-25 120 7 18 23 21 41 21 136 0 102 -1 110 -25 133 -30 31 -86 34 -114 6z m69
-141 c0 -91 -3 -110 -15 -110 -12 0 -15 18 -15 103 0 57 3 107 7 110 18 19 23
-2 23 -103z"/>
<path d="M2790 972 c-41 -33 -22 -121 40 -177 26 -23 28 -78 3 -73 -10 2 -19
13 -21 26 -3 16 -10 22 -28 22 -20 0 -24 -5 -24 -30 0 -43 31 -70 80 -70 77 0
106 72 55 141 -51 71 -65 94 -62 109 4 23 32 18 35 -7 3 -17 10 -23 28 -23 20
0 24 5 24 28 0 60 -81 94 -130 54z"/>
<path d="M2957 983 c-4 -3 -7 -75 -7 -160 l0 -153 70 0 c68 0 70 1 70 25 0 22
-4 25 -35 25 -35 0 -35 0 -35 45 0 41 2 45 25 45 20 0 25 5 25 25 0 20 -5 25
-25 25 -22 0 -25 4 -25 35 0 33 2 35 35 35 32 0 35 2 35 30 l0 30 -63 0 c-35
0 -67 -3 -70 -7z"/>
<path d="M3128 984 c-5 -4 -8 -76 -8 -161 l0 -153 35 0 35 0 0 66 c0 41 4 63
10 59 6 -3 10 -24 10 -46 0 -59 14 -79 55 -79 31 0 35 3 35 25 0 14 -4 25 -10
25 -5 0 -10 15 -10 33 0 18 -7 42 -15 54 -13 19 -13 22 0 27 11 4 15 20 15 55
0 68 -20 90 -90 98 -30 3 -58 2 -62 -3z m87 -94 c0 -18 -6 -35 -12 -37 -9 -3
-13 8 -13 37 0 29 4 40 13 38 6 -3 12 -20 12 -38z"/>
<path d="M3310 960 c0 -25 4 -30 25 -30 l25 0 0 -130 0 -130 30 0 30 0 0 130
0 130 25 0 c21 0 25 5 25 30 l0 30 -80 0 -80 0 0 -30z"/>
<path d="M3522 967 c-20 -22 -22 -33 -22 -160 l0 -137 25 0 c24 0 25 3 25 55
0 48 2 55 20 55 18 0 20 -7 20 -56 l0 -55 33 3 32 3 0 138 c0 134 -1 139 -24
158 -32 26 -82 25 -109 -4z m66 -80 c3 -42 1 -47 -17 -47 -18 0 -21 6 -21 43
0 24 3 47 7 51 16 15 28 -3 31 -47z"/>
<path d="M3721 971 c-26 -26 -34 -72 -30 -177 4 -76 7 -88 28 -105 36 -29 94
-25 120 7 18 23 21 41 21 136 0 102 -1 110 -25 133 -30 31 -86 34 -114 6z m69
-141 c0 -91 -3 -110 -15 -110 -12 0 -15 18 -15 103 0 57 3 107 7 110 18 19 23
-2 23 -103z"/>
</g>
</svg>
